<?xml version="1.0" encoding="UTF-8"?>
<svg width="137px" height="30px" viewBox="0 0 137 30" version="1.1" xmlns="http://www.w3.org/2000/svg" xmlns:xlink="http://www.w3.org/1999/xlink">
    <title>C3A3CE66-CD0A-43A3-BADE-A26CB99645F6@1x</title>
    <g id="Symbols" stroke="none" stroke-width="1" fill="none" fill-rule="evenodd">
        <g id="Group" fill="#151211" transform="translate(0.620596, 0.000000)">
            <path d="M87.1834577,3.09339293 L86.4328239,5.99801916 L86.4246648,5.99801916 L83.2312078,18 L79.8974149,18 L83.1071901,5.99801916 L79.5172026,5.99801916 L80.3037362,3.09339293 L87.1834577,3.09339293 Z M7.47043756,3.07270291 C9.91489267,3.07270291 11.6070822,4.25250334 12.3250797,6.09808326 L9.45308973,7.63688244 C8.97496868,6.66269038 8.22270312,6.09808326 7.04290269,6.09808326 C5.06025052,6.09808326 3.47086516,7.96161312 3.47086516,10.0470695 C3.47086516,11.5679187 4.47932528,12.5094745 5.86473408,12.5094745 C6.90746226,12.5094745 7.65972781,12.0656215 8.42831149,11.295406 L10.6671582,13.2780582 C9.50367592,14.5949309 7.9322405,15.5185367 5.65749389,15.5185367 C2.34165092,15.5185367 0,13.4836666 0,10.2869459 C0,6.74917644 2.87198998,3.07270291 7.47043756,3.07270291 Z M18.632035,3.09065285 C22.034364,3.09065285 24.3417469,5.41598564 24.3417469,8.45768412 C24.3417469,12.0982578 21.3669527,15.5005868 17.2139899,15.5005868 C13.8116609,15.5005868 11.504278,13.175254 11.504278,10.1335555 C11.504278,6.49298188 14.4790722,3.09065285 18.632035,3.09065285 Z M59.6394828,3.09065285 C63.0418118,3.09065285 65.3491947,5.41598564 65.3491947,8.45768412 C65.3491947,12.0982578 62.3744005,15.5005868 58.2214377,15.5005868 C54.8191087,15.5005868 52.5117258,13.175254 52.5117258,10.1335555 C52.5117258,6.49298188 55.48652,3.09065285 59.6394828,3.09065285 Z M30.0384043,3.31257935 L31.6277896,7.945295 L35.6958981,3.31257935 L39.4229579,3.31257935 L36.2099191,15.2786603 L32.8761262,15.2786603 L34.705388,8.40709793 L30.4153529,13.0903998 L30.3468168,13.0903998 L28.5860911,8.44136599 L26.7568293,15.2786603 L23.4752544,15.2786603 L26.6882932,3.31257935 L30.0384043,3.31257935 Z M43.8614878,3.31257935 L45.4508732,7.945295 L49.5189817,3.31257935 L53.2460414,3.31257935 L50.0330027,15.2786603 L46.6992097,15.2786603 L48.5284715,8.40709793 L44.2384365,13.0903998 L44.1699004,13.0903998 L42.4091747,8.44136599 L40.5799129,15.2786603 L37.298338,15.2786603 L40.5113768,3.31257935 L43.8614878,3.31257935 Z M77.964737,2.34980998 L79.244078,3.29626122 L75.9380259,15.2786603 L73.0317678,15.2786603 L69.7991473,8.38588437 L67.9519356,15.2786603 L64.6507789,15.2786603 L67.8670813,3.30768391 L70.9626296,3.30768391 L74.0581779,9.96058342 L75.9461849,3.20977516 L75.9559758,3.23098872 L77.964737,2.34980998 Z M120.792268,3.09339293 L113.04279,15.14596 L109.646988,15.14596 L117.970864,3.09339293 L120.792268,3.09339293 Z M110.381304,12.2659755 L109.63067,15.0873793 L103.982967,15.0873793 L104.754815,12.2659755 L110.381304,12.2659755 Z M130.390589,3.09339293 C132.689812,3.101552 134.130703,3.7297998 135.031463,4.6305603 C135.919169,5.5198981 136.330386,6.68174859 136.330386,8.13732533 C136.330386,9.93231907 135.646657,11.5722906 134.364052,12.8548952 C132.928057,14.2908902 130.858919,15.0594739 128.089733,15.0594739 L128.089733,15.0594739 L127.203659,15.0594739 L127.986929,12.1189478 L128.483,12.1189478 C129.866777,12.1189478 131.115113,11.6914129 131.901647,10.9048793 C132.53479,10.2717361 132.928057,9.3481302 132.928057,8.4082062 C132.928057,7.67225877 132.704499,7.14191971 132.329182,6.76660284 C131.885329,6.30643172 131.149381,6.03228722 129.987531,6.03228722 L129.987531,6.03228722 L129.607319,6.03228722 Z M94.8333946,3.09339293 L91.8471777,14.3806399 L91.6644147,15.0594739 L88.3306218,15.0594739 L91.5452924,3.09339293 L94.8333946,3.09339293 Z M106.484536,3.09339293 L105.684948,5.95722385 L105.686579,5.95885566 L105.201931,7.72447677 L110.911643,7.72447677 L110.211595,10.3402722 L104.501884,10.3402722 L103.989494,12.2380701 L103.217647,15.0594739 L99.9540222,15.0594739 L103.168693,3.09339293 L106.484536,3.09339293 Z M129.6269,3.09339293 L126.441602,15.0594739 L123.269359,15.0594739 L126.48403,3.09339293 L129.6269,3.09339293 Z M96.057254,3.09339293 C98.0578561,3.09339293 99.3747287,3.53887774 100.17758,4.34172949 C100.810724,4.97487273 101.101186,5.82831066 101.101186,6.78618459 C101.101186,8.7867867 99.955654,10.3598539 97.5128307,11.0240016 L97.5128307,11.0240016 L99.3584106,15.0578421 L95.699887,15.0578421 L94.1105017,11.4335866 L93.3908724,11.4335866 L94.0778654,8.83574108 L95.2201341,8.83574108 C96.7083471,8.83574108 97.6825392,8.20422964 97.6825392,7.17781959 C97.6825392,6.8530889 97.579735,6.59689434 97.3741266,6.37496785 C97.0999821,6.10245516 96.6055429,5.96538291 95.9038636,5.96538291 L95.9038636,5.96538291 L94.8366582,5.96538291 L95.5970828,3.09339293 Z M121.306289,3.09339293 L123.081701,14.579721 L119.594517,14.579721 L119.304055,12.4420467 L115.294691,12.4420467 L116.954245,9.86051932 L119.031542,9.86051932 L118.695389,7.15497421 L121.306289,3.09339293 Z M59.3490201,6.0638152 C57.2635638,6.0638152 55.8961049,8.09868537 55.8961049,9.87572917 C55.8961049,11.3965784 56.8197108,12.5257926 58.5119003,12.5257926 C60.6136748,12.5257926 61.9648156,10.4925543 61.9648156,8.71387868 C61.9648156,7.19302944 61.0412097,6.0638152 59.3490201,6.0638152 Z M18.3415723,6.0638152 C16.256116,6.0638152 14.8886571,8.09868537 14.8886571,9.87572917 C14.8886571,11.3965784 15.812263,12.5257926 17.5044525,12.5257926 C19.606227,12.5257926 20.9573678,10.4925543 20.9573678,8.71387868 C20.9573678,7.19302944 20.0337619,6.0638152 18.3415723,6.0638152 Z M90.783236,3.09339293 L90.0146523,5.99801916 L87.1948803,5.99801916 L87.9455141,3.09339293 L90.783236,3.09339293 Z M112.758855,3.09339293 L111.988639,5.91316491 L106.463322,5.91316491 L107.251488,3.09339293 L112.758855,3.09339293 Z M78.4395944,0 L79.8625349,1.05251905 L79.4545818,2.53420479 L78.0593821,1.5028993 L76.1942204,2.32043736 L76.6201235,0.797956306 L78.4395944,0 Z" id="Combined-Shape"></path>
            <g id="blog" transform="translate(99.909404, 19.508000)" fill-rule="nonzero">
                <path d="M0,9.492 L5.068,9.492 C6.846,9.492 7.784,8.372 7.784,6.972 C7.784,5.796 6.986,4.83 5.992,4.676 C6.874,4.494 7.602,3.71 7.602,2.534 C7.602,1.288 6.692,0.154 4.914,0.154 L0,0.154 L0,9.492 Z M1.988,3.906 L1.988,1.848 L4.48,1.848 C5.152,1.848 5.572,2.296 5.572,2.87 C5.572,3.472 5.152,3.906 4.48,3.906 L1.988,3.906 Z M1.988,7.798 L1.988,5.6 L4.55,5.6 C5.334,5.6 5.754,6.104 5.754,6.692 C5.754,7.364 5.306,7.798 4.55,7.798 L1.988,7.798 Z" id="Shape"></path>
                <polygon id="Path" points="9.282 9.492 15.218 9.492 15.218 7.742 11.27 7.742 11.27 0.154 9.282 0.154"></polygon>
                <path d="M16.156,4.83 C16.156,7.644 18.214,9.66 21.028,9.66 C23.856,9.66 25.914,7.644 25.914,4.83 C25.914,2.016 23.856,0 21.028,0 C18.214,0 16.156,2.016 16.156,4.83 Z M23.87,4.83 C23.87,6.566 22.75,7.896 21.028,7.896 C19.306,7.896 18.2,6.566 18.2,4.83 C18.2,3.08 19.306,1.764 21.028,1.764 C22.75,1.764 23.87,3.08 23.87,4.83 Z" id="Shape"></path>
                <path d="M26.866,4.83 C26.866,7.77 29.106,9.674 31.836,9.674 C33.53,9.674 34.86,8.974 35.812,7.91 L35.812,4.34 L31.36,4.34 L31.36,6.048 L33.852,6.048 L33.852,7.182 C33.446,7.546 32.69,7.896 31.836,7.896 C30.142,7.896 28.91,6.594 28.91,4.83 C28.91,3.066 30.142,1.764 31.836,1.764 C32.816,1.764 33.614,2.282 34.048,2.94 L35.7,2.044 C34.986,0.938 33.768,0 31.836,0 C29.106,0 26.866,1.876 26.866,4.83 Z" id="Path"></path>
            </g>
        </g>
    </g>
</svg>